# xmcd CD database file
#
# Track frame offsets:
#	150
#	12820
#	25192
#	37789
#	50156
#	62819
#	75266
#	88152
#	100553
#	112912
#	126268
#	138217
#	149845
#	160770
#	173209
#	186434
#	196373
#	209396
#
# Disc length: 2933 seconds
#
# Revision: 0
# Processed by: cddbd v1.5PL3 Copyright (c) Steve Scherf et al.
# Submitted via: CDex 1.51
#
DISCID=f20b7312
DTITLE=Hank Williams - From The Original Singles
DYEAR=1900
DGENRE=Country
TTITLE0=I Don't Care (If Tomorrow Never Comes)
TTITLE1=(Last Night) I Heard You Crying In Your Sleep
TTITLE2=Move It On Over
TTITLE3=Fly Trouble
TTITLE4=Rootie Tootie
TTITLE5=Hocky Tonkin'
TTITLE6=I'm A Long Gone Daddy
TTITLE7=The Blues Come Around
TTITLE8=Lovesick Blues
TTITLE9=Mind Your Own Business
TTITLE10=Long Gone Lonesome Blues
TTITLE11=My Son Calls Another Man Daddy
TTITLE12=Why Don't You Love Me
TTITLE13=Cold, Cold Heart
TTITLE14=Hey, Good Lookin'
TTITLE15=Honky Tonk Blues
TTITLE16=Jambalaya (On The Bayou)
TTITLE17=The Log Train
EXTD=
EXTT0=
EXTT1=
EXTT2=
EXTT3=
EXTT4=
EXTT5=
EXTT6=
EXTT7=
EXTT8=
EXTT9=
EXTT10=
EXTT11=
EXTT12=
EXTT13=
EXTT14=
EXTT15=
EXTT16=
EXTT17=
PLAYORDER=
